<mxfile host="65bd71144e">
    <diagram id="C5RBs43oDa-KdzZeNtuy" name="Page-1">
        <mxGraphModel dx="2230" dy="1405" grid="1" gridSize="10" guides="1" tooltips="1" connect="1" arrows="1" fold="1" page="1" pageScale="1" pageWidth="827" pageHeight="1169" math="0" shadow="0">
            <root>
                <mxCell id="WIyWlLk6GJQsqaUBKTNV-0"/>
                <mxCell id="WIyWlLk6GJQsqaUBKTNV-1" parent="WIyWlLk6GJQsqaUBKTNV-0"/>
                <mxCell id="zx0148MqRfyi0DoLK2Pc-1" value="bubble_sort(data, length, size, cmp)" style="rounded=1;whiteSpace=wrap;" parent="WIyWlLk6GJQsqaUBKTNV-1" vertex="1">
                    <mxGeometry x="300" y="540" width="220" height="60" as="geometry"/>
                </mxCell>
                <mxCell id="zx0148MqRfyi0DoLK2Pc-33" style="edgeStyle=orthogonalEdgeStyle;rounded=0;orthogonalLoop=1;jettySize=auto;html=1;" parent="WIyWlLk6GJQsqaUBKTNV-1" source="zx0148MqRfyi0DoLK2Pc-2" target="zx0148MqRfyi0DoLK2Pc-28" edge="1">
                    <mxGeometry relative="1" as="geometry">
                        <Array as="points">
                            <mxPoint x="540" y="670"/>
                            <mxPoint x="540" y="1570"/>
                        </Array>
                    </mxGeometry>
                </mxCell>
                <mxCell id="zx0148MqRfyi0DoLK2Pc-2" value="i = 0; i &amp;lt; length - 1; i++" style="shape=hexagon;perimeter=hexagonPerimeter2;whiteSpace=wrap;fixedSize=1;html=1;" parent="WIyWlLk6GJQsqaUBKTNV-1" vertex="1">
                    <mxGeometry x="330" y="640" width="160" height="60" as="geometry"/>
                </mxCell>
                <mxCell id="zx0148MqRfyi0DoLK2Pc-3" value="" style="edgeStyle=orthogonalEdgeStyle;rounded=0;orthogonalLoop=1;jettySize=auto;html=1;" parent="WIyWlLk6GJQsqaUBKTNV-1" source="zx0148MqRfyi0DoLK2Pc-1" target="zx0148MqRfyi0DoLK2Pc-2" edge="1">
                    <mxGeometry relative="1" as="geometry"/>
                </mxCell>
                <mxCell id="zx0148MqRfyi0DoLK2Pc-4" value="swapped = 0" style="rounded=0;whiteSpace=wrap;" parent="WIyWlLk6GJQsqaUBKTNV-1" vertex="1">
                    <mxGeometry x="350" y="740" width="120" height="60" as="geometry"/>
                </mxCell>
                <mxCell id="zx0148MqRfyi0DoLK2Pc-5" value="" style="edgeStyle=orthogonalEdgeStyle;rounded=0;orthogonalLoop=1;jettySize=auto;html=1;" parent="WIyWlLk6GJQsqaUBKTNV-1" source="zx0148MqRfyi0DoLK2Pc-2" target="zx0148MqRfyi0DoLK2Pc-4" edge="1">
                    <mxGeometry relative="1" as="geometry"/>
                </mxCell>
                <mxCell id="zx0148MqRfyi0DoLK2Pc-6" value="j = 0; j &lt; length - i - 1; j++" style="shape=hexagon;perimeter=hexagonPerimeter2;whiteSpace=wrap;fixedSize=1;" parent="WIyWlLk6GJQsqaUBKTNV-1" vertex="1">
                    <mxGeometry x="320" y="840" width="180" height="60" as="geometry"/>
                </mxCell>
                <mxCell id="zx0148MqRfyi0DoLK2Pc-7" value="" style="edgeStyle=orthogonalEdgeStyle;rounded=0;orthogonalLoop=1;jettySize=auto;html=1;" parent="WIyWlLk6GJQsqaUBKTNV-1" source="zx0148MqRfyi0DoLK2Pc-4" target="zx0148MqRfyi0DoLK2Pc-6" edge="1">
                    <mxGeometry relative="1" as="geometry"/>
                </mxCell>
                <mxCell id="zx0148MqRfyi0DoLK2Pc-11" style="edgeStyle=orthogonalEdgeStyle;rounded=0;orthogonalLoop=1;jettySize=auto;html=1;" parent="WIyWlLk6GJQsqaUBKTNV-1" source="zx0148MqRfyi0DoLK2Pc-8" target="zx0148MqRfyi0DoLK2Pc-10" edge="1">
                    <mxGeometry relative="1" as="geometry"/>
                </mxCell>
                <mxCell id="zx0148MqRfyi0DoLK2Pc-8" value="a = void_add(data, j, size)" style="rounded=0;whiteSpace=wrap;" parent="WIyWlLk6GJQsqaUBKTNV-1" vertex="1">
                    <mxGeometry x="320" y="940" width="180" height="60" as="geometry"/>
                </mxCell>
                <mxCell id="zx0148MqRfyi0DoLK2Pc-9" value="" style="edgeStyle=orthogonalEdgeStyle;rounded=0;orthogonalLoop=1;jettySize=auto;html=1;" parent="WIyWlLk6GJQsqaUBKTNV-1" source="zx0148MqRfyi0DoLK2Pc-6" target="zx0148MqRfyi0DoLK2Pc-8" edge="1">
                    <mxGeometry relative="1" as="geometry"/>
                </mxCell>
                <mxCell id="zx0148MqRfyi0DoLK2Pc-10" value="b = void_add(data, j + 1, size)" style="rounded=0;whiteSpace=wrap;" parent="WIyWlLk6GJQsqaUBKTNV-1" vertex="1">
                    <mxGeometry x="320" y="1040" width="180" height="60" as="geometry"/>
                </mxCell>
                <mxCell id="zx0148MqRfyi0DoLK2Pc-21" style="edgeStyle=orthogonalEdgeStyle;rounded=0;orthogonalLoop=1;jettySize=auto;html=1;" parent="WIyWlLk6GJQsqaUBKTNV-1" source="zx0148MqRfyi0DoLK2Pc-12" target="zx0148MqRfyi0DoLK2Pc-6" edge="1">
                    <mxGeometry relative="1" as="geometry">
                        <Array as="points">
                            <mxPoint x="300" y="1170"/>
                            <mxPoint x="300" y="870"/>
                        </Array>
                    </mxGeometry>
                </mxCell>
                <mxCell id="zx0148MqRfyi0DoLK2Pc-12" value="cmp(a, b) &gt; 0" style="rhombus;whiteSpace=wrap;" parent="WIyWlLk6GJQsqaUBKTNV-1" vertex="1">
                    <mxGeometry x="350" y="1140" width="120" height="60" as="geometry"/>
                </mxCell>
                <mxCell id="zx0148MqRfyi0DoLK2Pc-13" value="" style="edgeStyle=orthogonalEdgeStyle;rounded=0;orthogonalLoop=1;jettySize=auto;html=1;" parent="WIyWlLk6GJQsqaUBKTNV-1" source="zx0148MqRfyi0DoLK2Pc-10" target="zx0148MqRfyi0DoLK2Pc-12" edge="1">
                    <mxGeometry relative="1" as="geometry"/>
                </mxCell>
                <mxCell id="zx0148MqRfyi0DoLK2Pc-14" value="swap(a, b, size)" style="rounded=0;whiteSpace=wrap;" parent="WIyWlLk6GJQsqaUBKTNV-1" vertex="1">
                    <mxGeometry x="350" y="1240" width="120" height="60" as="geometry"/>
                </mxCell>
                <mxCell id="zx0148MqRfyi0DoLK2Pc-15" value="" style="edgeStyle=orthogonalEdgeStyle;rounded=0;orthogonalLoop=1;jettySize=auto;html=1;" parent="WIyWlLk6GJQsqaUBKTNV-1" source="zx0148MqRfyi0DoLK2Pc-12" target="zx0148MqRfyi0DoLK2Pc-14" edge="1">
                    <mxGeometry relative="1" as="geometry"/>
                </mxCell>
                <mxCell id="zx0148MqRfyi0DoLK2Pc-25" style="edgeStyle=orthogonalEdgeStyle;rounded=0;orthogonalLoop=1;jettySize=auto;html=1;" parent="WIyWlLk6GJQsqaUBKTNV-1" source="zx0148MqRfyi0DoLK2Pc-16" target="zx0148MqRfyi0DoLK2Pc-6" edge="1">
                    <mxGeometry relative="1" as="geometry">
                        <Array as="points">
                            <mxPoint x="410" y="1420"/>
                            <mxPoint x="300" y="1420"/>
                            <mxPoint x="300" y="870"/>
                        </Array>
                    </mxGeometry>
                </mxCell>
                <mxCell id="zx0148MqRfyi0DoLK2Pc-16" value="swapped = 1" style="rounded=0;whiteSpace=wrap;" parent="WIyWlLk6GJQsqaUBKTNV-1" vertex="1">
                    <mxGeometry x="350" y="1340" width="120" height="60" as="geometry"/>
                </mxCell>
                <mxCell id="zx0148MqRfyi0DoLK2Pc-17" value="" style="edgeStyle=orthogonalEdgeStyle;rounded=0;orthogonalLoop=1;jettySize=auto;html=1;" parent="WIyWlLk6GJQsqaUBKTNV-1" source="zx0148MqRfyi0DoLK2Pc-14" target="zx0148MqRfyi0DoLK2Pc-16" edge="1">
                    <mxGeometry relative="1" as="geometry"/>
                </mxCell>
                <mxCell id="zx0148MqRfyi0DoLK2Pc-18" value="true" style="text;html=1;strokeColor=none;fillColor=none;align=center;verticalAlign=middle;whiteSpace=wrap;rounded=0;" parent="WIyWlLk6GJQsqaUBKTNV-1" vertex="1">
                    <mxGeometry x="410" y="1200" width="40" height="20" as="geometry"/>
                </mxCell>
                <mxCell id="zx0148MqRfyi0DoLK2Pc-22" value="false" style="text;html=1;strokeColor=none;fillColor=none;align=center;verticalAlign=middle;whiteSpace=wrap;rounded=0;" parent="WIyWlLk6GJQsqaUBKTNV-1" vertex="1">
                    <mxGeometry x="310" y="1149" width="40" height="20" as="geometry"/>
                </mxCell>
                <mxCell id="zx0148MqRfyi0DoLK2Pc-29" style="edgeStyle=orthogonalEdgeStyle;rounded=0;orthogonalLoop=1;jettySize=auto;html=1;" parent="WIyWlLk6GJQsqaUBKTNV-1" source="zx0148MqRfyi0DoLK2Pc-26" target="zx0148MqRfyi0DoLK2Pc-28" edge="1">
                    <mxGeometry relative="1" as="geometry"/>
                </mxCell>
                <mxCell id="zx0148MqRfyi0DoLK2Pc-31" style="edgeStyle=orthogonalEdgeStyle;rounded=0;orthogonalLoop=1;jettySize=auto;html=1;" parent="WIyWlLk6GJQsqaUBKTNV-1" source="zx0148MqRfyi0DoLK2Pc-26" target="zx0148MqRfyi0DoLK2Pc-2" edge="1">
                    <mxGeometry relative="1" as="geometry">
                        <mxPoint x="220" y="810" as="targetPoint"/>
                        <Array as="points">
                            <mxPoint x="280" y="1470"/>
                            <mxPoint x="280" y="670"/>
                        </Array>
                    </mxGeometry>
                </mxCell>
                <mxCell id="zx0148MqRfyi0DoLK2Pc-26" value="!swapped" style="rhombus;whiteSpace=wrap;" parent="WIyWlLk6GJQsqaUBKTNV-1" vertex="1">
                    <mxGeometry x="350" y="1440" width="120" height="60" as="geometry"/>
                </mxCell>
                <mxCell id="zx0148MqRfyi0DoLK2Pc-27" value="" style="edgeStyle=orthogonalEdgeStyle;rounded=0;orthogonalLoop=1;jettySize=auto;html=1;" parent="WIyWlLk6GJQsqaUBKTNV-1" source="zx0148MqRfyi0DoLK2Pc-6" target="zx0148MqRfyi0DoLK2Pc-26" edge="1">
                    <mxGeometry relative="1" as="geometry">
                        <Array as="points">
                            <mxPoint x="520" y="870"/>
                            <mxPoint x="520" y="1470"/>
                        </Array>
                    </mxGeometry>
                </mxCell>
                <mxCell id="zx0148MqRfyi0DoLK2Pc-28" value="end" style="rounded=1;whiteSpace=wrap;html=1;" parent="WIyWlLk6GJQsqaUBKTNV-1" vertex="1">
                    <mxGeometry x="350" y="1540" width="120" height="60" as="geometry"/>
                </mxCell>
                <mxCell id="zx0148MqRfyi0DoLK2Pc-30" value="true" style="text;html=1;strokeColor=none;fillColor=none;align=center;verticalAlign=middle;whiteSpace=wrap;rounded=0;" parent="WIyWlLk6GJQsqaUBKTNV-1" vertex="1">
                    <mxGeometry x="410" y="1500" width="40" height="20" as="geometry"/>
                </mxCell>
                <mxCell id="zx0148MqRfyi0DoLK2Pc-32" value="false" style="text;html=1;strokeColor=none;fillColor=none;align=center;verticalAlign=middle;whiteSpace=wrap;rounded=0;" parent="WIyWlLk6GJQsqaUBKTNV-1" vertex="1">
                    <mxGeometry x="310" y="1450" width="40" height="20" as="geometry"/>
                </mxCell>
                <mxCell id="zx0148MqRfyi0DoLK2Pc-34" value="double_selection_sort(data, length, size, cmp)" style="rounded=1;whiteSpace=wrap;" parent="WIyWlLk6GJQsqaUBKTNV-1" vertex="1">
                    <mxGeometry x="820" y="540" width="280" height="60" as="geometry"/>
                </mxCell>
                <mxCell id="zx0148MqRfyi0DoLK2Pc-38" style="edgeStyle=orthogonalEdgeStyle;rounded=0;orthogonalLoop=1;jettySize=auto;html=1;" parent="WIyWlLk6GJQsqaUBKTNV-1" source="zx0148MqRfyi0DoLK2Pc-35" target="zx0148MqRfyi0DoLK2Pc-37" edge="1">
                    <mxGeometry relative="1" as="geometry"/>
                </mxCell>
                <mxCell id="zx0148MqRfyi0DoLK2Pc-35" value="start = data" style="rounded=0;whiteSpace=wrap;" parent="WIyWlLk6GJQsqaUBKTNV-1" vertex="1">
                    <mxGeometry x="900" y="640" width="120" height="60" as="geometry"/>
                </mxCell>
                <mxCell id="zx0148MqRfyi0DoLK2Pc-36" value="" style="edgeStyle=orthogonalEdgeStyle;rounded=0;orthogonalLoop=1;jettySize=auto;html=1;" parent="WIyWlLk6GJQsqaUBKTNV-1" source="zx0148MqRfyi0DoLK2Pc-34" target="zx0148MqRfyi0DoLK2Pc-35" edge="1">
                    <mxGeometry relative="1" as="geometry"/>
                </mxCell>
                <mxCell id="zx0148MqRfyi0DoLK2Pc-37" value="end = void_add(data, length - 1, size)" style="rounded=0;whiteSpace=wrap;" parent="WIyWlLk6GJQsqaUBKTNV-1" vertex="1">
                    <mxGeometry x="840" y="740" width="240" height="60" as="geometry"/>
                </mxCell>
                <mxCell id="zx0148MqRfyi0DoLK2Pc-43" style="edgeStyle=orthogonalEdgeStyle;rounded=0;orthogonalLoop=1;jettySize=auto;html=1;" parent="WIyWlLk6GJQsqaUBKTNV-1" source="zx0148MqRfyi0DoLK2Pc-39" target="zx0148MqRfyi0DoLK2Pc-42" edge="1">
                    <mxGeometry relative="1" as="geometry"/>
                </mxCell>
                <mxCell id="zx0148MqRfyi0DoLK2Pc-74" style="edgeStyle=orthogonalEdgeStyle;rounded=0;orthogonalLoop=1;jettySize=auto;html=1;" parent="WIyWlLk6GJQsqaUBKTNV-1" source="zx0148MqRfyi0DoLK2Pc-39" target="zx0148MqRfyi0DoLK2Pc-73" edge="1">
                    <mxGeometry relative="1" as="geometry">
                        <Array as="points">
                            <mxPoint x="1120" y="870"/>
                            <mxPoint x="1120" y="1870"/>
                        </Array>
                    </mxGeometry>
                </mxCell>
                <mxCell id="zx0148MqRfyi0DoLK2Pc-39" value="start &lt; end" style="rhombus;whiteSpace=wrap;" parent="WIyWlLk6GJQsqaUBKTNV-1" vertex="1">
                    <mxGeometry x="890" y="840" width="140" height="60" as="geometry"/>
                </mxCell>
                <mxCell id="zx0148MqRfyi0DoLK2Pc-40" value="" style="edgeStyle=orthogonalEdgeStyle;rounded=0;orthogonalLoop=1;jettySize=auto;html=1;" parent="WIyWlLk6GJQsqaUBKTNV-1" source="zx0148MqRfyi0DoLK2Pc-37" target="zx0148MqRfyi0DoLK2Pc-39" edge="1">
                    <mxGeometry relative="1" as="geometry"/>
                </mxCell>
                <mxCell id="zx0148MqRfyi0DoLK2Pc-45" style="edgeStyle=orthogonalEdgeStyle;rounded=0;orthogonalLoop=1;jettySize=auto;html=1;" parent="WIyWlLk6GJQsqaUBKTNV-1" source="zx0148MqRfyi0DoLK2Pc-42" target="zx0148MqRfyi0DoLK2Pc-44" edge="1">
                    <mxGeometry relative="1" as="geometry"/>
                </mxCell>
                <mxCell id="zx0148MqRfyi0DoLK2Pc-42" value="min = start" style="rounded=0;whiteSpace=wrap;" parent="WIyWlLk6GJQsqaUBKTNV-1" vertex="1">
                    <mxGeometry x="900" y="940" width="120" height="60" as="geometry"/>
                </mxCell>
                <mxCell id="zx0148MqRfyi0DoLK2Pc-49" style="edgeStyle=orthogonalEdgeStyle;rounded=0;orthogonalLoop=1;jettySize=auto;html=1;" parent="WIyWlLk6GJQsqaUBKTNV-1" source="zx0148MqRfyi0DoLK2Pc-44" target="zx0148MqRfyi0DoLK2Pc-48" edge="1">
                    <mxGeometry relative="1" as="geometry"/>
                </mxCell>
                <mxCell id="zx0148MqRfyi0DoLK2Pc-44" value="max = end" style="rounded=0;whiteSpace=wrap;" parent="WIyWlLk6GJQsqaUBKTNV-1" vertex="1">
                    <mxGeometry x="900" y="1040" width="120" height="60" as="geometry"/>
                </mxCell>
                <mxCell id="zx0148MqRfyi0DoLK2Pc-46" value="true" style="text;html=1;strokeColor=none;fillColor=none;align=center;verticalAlign=middle;whiteSpace=wrap;rounded=0;" parent="WIyWlLk6GJQsqaUBKTNV-1" vertex="1">
                    <mxGeometry x="960" y="900" width="40" height="20" as="geometry"/>
                </mxCell>
                <mxCell id="zx0148MqRfyi0DoLK2Pc-52" style="edgeStyle=orthogonalEdgeStyle;rounded=0;orthogonalLoop=1;jettySize=auto;html=1;" parent="WIyWlLk6GJQsqaUBKTNV-1" source="zx0148MqRfyi0DoLK2Pc-48" target="zx0148MqRfyi0DoLK2Pc-51" edge="1">
                    <mxGeometry relative="1" as="geometry"/>
                </mxCell>
                <mxCell id="zx0148MqRfyi0DoLK2Pc-48" value="minmax(start, end, cmp, &amp;min, &amp;max, size)" style="rounded=0;whiteSpace=wrap;" parent="WIyWlLk6GJQsqaUBKTNV-1" vertex="1">
                    <mxGeometry x="830" y="1140" width="260" height="60" as="geometry"/>
                </mxCell>
                <mxCell id="zx0148MqRfyi0DoLK2Pc-54" style="edgeStyle=orthogonalEdgeStyle;rounded=0;orthogonalLoop=1;jettySize=auto;html=1;" parent="WIyWlLk6GJQsqaUBKTNV-1" source="zx0148MqRfyi0DoLK2Pc-51" target="zx0148MqRfyi0DoLK2Pc-53" edge="1">
                    <mxGeometry relative="1" as="geometry"/>
                </mxCell>
                <mxCell id="zx0148MqRfyi0DoLK2Pc-57" style="edgeStyle=orthogonalEdgeStyle;rounded=0;orthogonalLoop=1;jettySize=auto;html=1;" parent="WIyWlLk6GJQsqaUBKTNV-1" source="zx0148MqRfyi0DoLK2Pc-51" target="zx0148MqRfyi0DoLK2Pc-56" edge="1">
                    <mxGeometry relative="1" as="geometry">
                        <Array as="points">
                            <mxPoint x="850" y="1270"/>
                            <mxPoint x="850" y="1470"/>
                        </Array>
                    </mxGeometry>
                </mxCell>
                <mxCell id="zx0148MqRfyi0DoLK2Pc-51" value="min != start" style="rhombus;whiteSpace=wrap;" parent="WIyWlLk6GJQsqaUBKTNV-1" vertex="1">
                    <mxGeometry x="890" y="1240" width="140" height="60" as="geometry"/>
                </mxCell>
                <mxCell id="zx0148MqRfyi0DoLK2Pc-59" style="edgeStyle=orthogonalEdgeStyle;rounded=0;orthogonalLoop=1;jettySize=auto;html=1;" parent="WIyWlLk6GJQsqaUBKTNV-1" source="zx0148MqRfyi0DoLK2Pc-53" target="zx0148MqRfyi0DoLK2Pc-56" edge="1">
                    <mxGeometry relative="1" as="geometry"/>
                </mxCell>
                <mxCell id="zx0148MqRfyi0DoLK2Pc-53" value="swap(min, start, size)" style="rounded=0;whiteSpace=wrap;" parent="WIyWlLk6GJQsqaUBKTNV-1" vertex="1">
                    <mxGeometry x="890" y="1340" width="140" height="60" as="geometry"/>
                </mxCell>
                <mxCell id="zx0148MqRfyi0DoLK2Pc-55" value="true" style="text;html=1;strokeColor=none;fillColor=none;align=center;verticalAlign=middle;whiteSpace=wrap;rounded=0;" parent="WIyWlLk6GJQsqaUBKTNV-1" vertex="1">
                    <mxGeometry x="960" y="1300" width="40" height="20" as="geometry"/>
                </mxCell>
                <mxCell id="zx0148MqRfyi0DoLK2Pc-63" style="edgeStyle=orthogonalEdgeStyle;rounded=0;orthogonalLoop=1;jettySize=auto;html=1;" parent="WIyWlLk6GJQsqaUBKTNV-1" source="zx0148MqRfyi0DoLK2Pc-56" target="zx0148MqRfyi0DoLK2Pc-62" edge="1">
                    <mxGeometry relative="1" as="geometry"/>
                </mxCell>
                <mxCell id="zx0148MqRfyi0DoLK2Pc-67" style="edgeStyle=orthogonalEdgeStyle;rounded=0;orthogonalLoop=1;jettySize=auto;html=1;" parent="WIyWlLk6GJQsqaUBKTNV-1" source="zx0148MqRfyi0DoLK2Pc-56" target="zx0148MqRfyi0DoLK2Pc-65" edge="1">
                    <mxGeometry relative="1" as="geometry">
                        <Array as="points">
                            <mxPoint x="1100" y="1470"/>
                            <mxPoint x="1100" y="1670"/>
                        </Array>
                    </mxGeometry>
                </mxCell>
                <mxCell id="zx0148MqRfyi0DoLK2Pc-56" value="max != end" style="rhombus;whiteSpace=wrap;" parent="WIyWlLk6GJQsqaUBKTNV-1" vertex="1">
                    <mxGeometry x="890" y="1440" width="140" height="60" as="geometry"/>
                </mxCell>
                <mxCell id="zx0148MqRfyi0DoLK2Pc-58" value="false" style="text;html=1;strokeColor=none;fillColor=none;align=center;verticalAlign=middle;whiteSpace=wrap;rounded=0;" parent="WIyWlLk6GJQsqaUBKTNV-1" vertex="1">
                    <mxGeometry x="850" y="1250" width="40" height="20" as="geometry"/>
                </mxCell>
                <mxCell id="zx0148MqRfyi0DoLK2Pc-66" style="edgeStyle=orthogonalEdgeStyle;rounded=0;orthogonalLoop=1;jettySize=auto;html=1;" parent="WIyWlLk6GJQsqaUBKTNV-1" source="zx0148MqRfyi0DoLK2Pc-62" target="zx0148MqRfyi0DoLK2Pc-65" edge="1">
                    <mxGeometry relative="1" as="geometry"/>
                </mxCell>
                <mxCell id="zx0148MqRfyi0DoLK2Pc-62" value="swap(max == start ? min : max, end, size)" style="rounded=0;whiteSpace=wrap;" parent="WIyWlLk6GJQsqaUBKTNV-1" vertex="1">
                    <mxGeometry x="840" y="1540" width="240" height="60" as="geometry"/>
                </mxCell>
                <mxCell id="zx0148MqRfyi0DoLK2Pc-64" value="true" style="text;html=1;strokeColor=none;fillColor=none;align=center;verticalAlign=middle;whiteSpace=wrap;rounded=0;" parent="WIyWlLk6GJQsqaUBKTNV-1" vertex="1">
                    <mxGeometry x="960" y="1500" width="40" height="20" as="geometry"/>
                </mxCell>
                <mxCell id="zx0148MqRfyi0DoLK2Pc-71" style="edgeStyle=orthogonalEdgeStyle;rounded=0;orthogonalLoop=1;jettySize=auto;html=1;" parent="WIyWlLk6GJQsqaUBKTNV-1" source="zx0148MqRfyi0DoLK2Pc-65" target="zx0148MqRfyi0DoLK2Pc-70" edge="1">
                    <mxGeometry relative="1" as="geometry"/>
                </mxCell>
                <mxCell id="zx0148MqRfyi0DoLK2Pc-65" value="void_inc(&amp;start, size)" style="rounded=0;whiteSpace=wrap;" parent="WIyWlLk6GJQsqaUBKTNV-1" vertex="1">
                    <mxGeometry x="880" y="1640" width="160" height="60" as="geometry"/>
                </mxCell>
                <mxCell id="zx0148MqRfyi0DoLK2Pc-68" value="false" style="text;html=1;strokeColor=none;fillColor=none;align=center;verticalAlign=middle;whiteSpace=wrap;rounded=0;" parent="WIyWlLk6GJQsqaUBKTNV-1" vertex="1">
                    <mxGeometry x="1030" y="1450" width="40" height="20" as="geometry"/>
                </mxCell>
                <mxCell id="zx0148MqRfyi0DoLK2Pc-72" style="edgeStyle=orthogonalEdgeStyle;rounded=0;orthogonalLoop=1;jettySize=auto;html=1;" parent="WIyWlLk6GJQsqaUBKTNV-1" source="zx0148MqRfyi0DoLK2Pc-70" target="zx0148MqRfyi0DoLK2Pc-39" edge="1">
                    <mxGeometry relative="1" as="geometry">
                        <Array as="points">
                            <mxPoint x="960" y="1820"/>
                            <mxPoint x="800" y="1820"/>
                            <mxPoint x="800" y="870"/>
                        </Array>
                    </mxGeometry>
                </mxCell>
                <mxCell id="zx0148MqRfyi0DoLK2Pc-70" value="void_dec(&amp;end, size)" style="rounded=0;whiteSpace=wrap;" parent="WIyWlLk6GJQsqaUBKTNV-1" vertex="1">
                    <mxGeometry x="880" y="1740" width="160" height="60" as="geometry"/>
                </mxCell>
                <mxCell id="zx0148MqRfyi0DoLK2Pc-73" value="end" style="rounded=1;whiteSpace=wrap;html=1;" parent="WIyWlLk6GJQsqaUBKTNV-1" vertex="1">
                    <mxGeometry x="900" y="1840" width="120" height="60" as="geometry"/>
                </mxCell>
                <mxCell id="zx0148MqRfyi0DoLK2Pc-75" value="false" style="text;html=1;strokeColor=none;fillColor=none;align=center;verticalAlign=middle;whiteSpace=wrap;rounded=0;" parent="WIyWlLk6GJQsqaUBKTNV-1" vertex="1">
                    <mxGeometry x="1030" y="850" width="40" height="20" as="geometry"/>
                </mxCell>
                <mxCell id="zx0148MqRfyi0DoLK2Pc-76" value="&lt;font style=&quot;font-size: 24px&quot;&gt;A&lt;/font&gt;" style="text;html=1;strokeColor=none;fillColor=none;align=center;verticalAlign=middle;whiteSpace=wrap;rounded=0;" parent="WIyWlLk6GJQsqaUBKTNV-1" vertex="1">
                    <mxGeometry x="390" y="480" width="40" height="20" as="geometry"/>
                </mxCell>
                <mxCell id="zx0148MqRfyi0DoLK2Pc-77" value="&lt;font style=&quot;font-size: 24px&quot;&gt;A&lt;/font&gt;" style="text;html=1;strokeColor=none;fillColor=none;align=center;verticalAlign=middle;whiteSpace=wrap;rounded=0;" parent="WIyWlLk6GJQsqaUBKTNV-1" vertex="1">
                    <mxGeometry x="940" y="480" width="40" height="20" as="geometry"/>
                </mxCell>
                <mxCell id="zx0148MqRfyi0DoLK2Pc-78" value="&lt;font style=&quot;font-size: 24px&quot;&gt;1&lt;/font&gt;" style="text;html=1;strokeColor=none;fillColor=none;align=center;verticalAlign=middle;whiteSpace=wrap;rounded=0;" parent="WIyWlLk6GJQsqaUBKTNV-1" vertex="1">
                    <mxGeometry x="220" y="560" width="40" height="20" as="geometry"/>
                </mxCell>
                <mxCell id="zx0148MqRfyi0DoLK2Pc-79" value="&lt;font style=&quot;font-size: 24px&quot;&gt;2&lt;/font&gt;" style="text;html=1;strokeColor=none;fillColor=none;align=center;verticalAlign=middle;whiteSpace=wrap;rounded=0;" parent="WIyWlLk6GJQsqaUBKTNV-1" vertex="1">
                    <mxGeometry x="220" y="660" width="40" height="20" as="geometry"/>
                </mxCell>
                <mxCell id="zx0148MqRfyi0DoLK2Pc-80" value="&lt;font style=&quot;font-size: 24px&quot;&gt;3&lt;/font&gt;" style="text;html=1;strokeColor=none;fillColor=none;align=center;verticalAlign=middle;whiteSpace=wrap;rounded=0;" parent="WIyWlLk6GJQsqaUBKTNV-1" vertex="1">
                    <mxGeometry x="220" y="760" width="40" height="20" as="geometry"/>
                </mxCell>
                <mxCell id="zx0148MqRfyi0DoLK2Pc-81" value="&lt;font style=&quot;font-size: 24px&quot;&gt;4&lt;/font&gt;" style="text;html=1;strokeColor=none;fillColor=none;align=center;verticalAlign=middle;whiteSpace=wrap;rounded=0;" parent="WIyWlLk6GJQsqaUBKTNV-1" vertex="1">
                    <mxGeometry x="220" y="860" width="40" height="20" as="geometry"/>
                </mxCell>
                <mxCell id="zx0148MqRfyi0DoLK2Pc-83" value="&lt;font style=&quot;font-size: 24px&quot;&gt;5&lt;/font&gt;" style="text;html=1;strokeColor=none;fillColor=none;align=center;verticalAlign=middle;whiteSpace=wrap;rounded=0;" parent="WIyWlLk6GJQsqaUBKTNV-1" vertex="1">
                    <mxGeometry x="220" y="960" width="40" height="20" as="geometry"/>
                </mxCell>
                <mxCell id="zx0148MqRfyi0DoLK2Pc-84" value="&lt;font style=&quot;font-size: 24px&quot;&gt;6&lt;/font&gt;" style="text;html=1;strokeColor=none;fillColor=none;align=center;verticalAlign=middle;whiteSpace=wrap;rounded=0;" parent="WIyWlLk6GJQsqaUBKTNV-1" vertex="1">
                    <mxGeometry x="220" y="1060" width="40" height="20" as="geometry"/>
                </mxCell>
                <mxCell id="zx0148MqRfyi0DoLK2Pc-85" value="&lt;font style=&quot;font-size: 24px&quot;&gt;7&lt;/font&gt;" style="text;html=1;strokeColor=none;fillColor=none;align=center;verticalAlign=middle;whiteSpace=wrap;rounded=0;" parent="WIyWlLk6GJQsqaUBKTNV-1" vertex="1">
                    <mxGeometry x="220" y="1160" width="40" height="20" as="geometry"/>
                </mxCell>
                <mxCell id="zx0148MqRfyi0DoLK2Pc-86" value="&lt;font style=&quot;font-size: 24px&quot;&gt;8&lt;/font&gt;" style="text;html=1;strokeColor=none;fillColor=none;align=center;verticalAlign=middle;whiteSpace=wrap;rounded=0;" parent="WIyWlLk6GJQsqaUBKTNV-1" vertex="1">
                    <mxGeometry x="220" y="1260" width="40" height="20" as="geometry"/>
                </mxCell>
                <mxCell id="zx0148MqRfyi0DoLK2Pc-87" value="&lt;font style=&quot;font-size: 24px&quot;&gt;9&lt;/font&gt;" style="text;html=1;strokeColor=none;fillColor=none;align=center;verticalAlign=middle;whiteSpace=wrap;rounded=0;" parent="WIyWlLk6GJQsqaUBKTNV-1" vertex="1">
                    <mxGeometry x="220" y="1360" width="40" height="20" as="geometry"/>
                </mxCell>
                <mxCell id="zx0148MqRfyi0DoLK2Pc-88" value="&lt;font style=&quot;font-size: 24px&quot;&gt;10&lt;/font&gt;" style="text;html=1;strokeColor=none;fillColor=none;align=center;verticalAlign=middle;whiteSpace=wrap;rounded=0;" parent="WIyWlLk6GJQsqaUBKTNV-1" vertex="1">
                    <mxGeometry x="220" y="1460" width="40" height="20" as="geometry"/>
                </mxCell>
                <mxCell id="zx0148MqRfyi0DoLK2Pc-89" value="&lt;font style=&quot;font-size: 24px&quot;&gt;11&lt;/font&gt;" style="text;html=1;strokeColor=none;fillColor=none;align=center;verticalAlign=middle;whiteSpace=wrap;rounded=0;" parent="WIyWlLk6GJQsqaUBKTNV-1" vertex="1">
                    <mxGeometry x="220" y="1560" width="40" height="20" as="geometry"/>
                </mxCell>
                <mxCell id="zx0148MqRfyi0DoLK2Pc-109" value="&lt;font style=&quot;font-size: 24px&quot;&gt;1&lt;/font&gt;" style="text;html=1;strokeColor=none;fillColor=none;align=center;verticalAlign=middle;whiteSpace=wrap;rounded=0;" parent="WIyWlLk6GJQsqaUBKTNV-1" vertex="1">
                    <mxGeometry x="740" y="560" width="40" height="20" as="geometry"/>
                </mxCell>
                <mxCell id="zx0148MqRfyi0DoLK2Pc-110" value="&lt;font style=&quot;font-size: 24px&quot;&gt;2&lt;/font&gt;" style="text;html=1;strokeColor=none;fillColor=none;align=center;verticalAlign=middle;whiteSpace=wrap;rounded=0;" parent="WIyWlLk6GJQsqaUBKTNV-1" vertex="1">
                    <mxGeometry x="740" y="660" width="40" height="20" as="geometry"/>
                </mxCell>
                <mxCell id="zx0148MqRfyi0DoLK2Pc-111" value="&lt;font style=&quot;font-size: 24px&quot;&gt;3&lt;/font&gt;" style="text;html=1;strokeColor=none;fillColor=none;align=center;verticalAlign=middle;whiteSpace=wrap;rounded=0;" parent="WIyWlLk6GJQsqaUBKTNV-1" vertex="1">
                    <mxGeometry x="740" y="760" width="40" height="20" as="geometry"/>
                </mxCell>
                <mxCell id="zx0148MqRfyi0DoLK2Pc-112" value="&lt;font style=&quot;font-size: 24px&quot;&gt;4&lt;/font&gt;" style="text;html=1;strokeColor=none;fillColor=none;align=center;verticalAlign=middle;whiteSpace=wrap;rounded=0;" parent="WIyWlLk6GJQsqaUBKTNV-1" vertex="1">
                    <mxGeometry x="740" y="860" width="40" height="20" as="geometry"/>
                </mxCell>
                <mxCell id="zx0148MqRfyi0DoLK2Pc-113" value="&lt;font style=&quot;font-size: 24px&quot;&gt;5&lt;/font&gt;" style="text;html=1;strokeColor=none;fillColor=none;align=center;verticalAlign=middle;whiteSpace=wrap;rounded=0;" parent="WIyWlLk6GJQsqaUBKTNV-1" vertex="1">
                    <mxGeometry x="740" y="960" width="40" height="20" as="geometry"/>
                </mxCell>
                <mxCell id="zx0148MqRfyi0DoLK2Pc-114" value="&lt;font style=&quot;font-size: 24px&quot;&gt;6&lt;/font&gt;" style="text;html=1;strokeColor=none;fillColor=none;align=center;verticalAlign=middle;whiteSpace=wrap;rounded=0;" parent="WIyWlLk6GJQsqaUBKTNV-1" vertex="1">
                    <mxGeometry x="740" y="1060" width="40" height="20" as="geometry"/>
                </mxCell>
                <mxCell id="zx0148MqRfyi0DoLK2Pc-115" value="&lt;font style=&quot;font-size: 24px&quot;&gt;7&lt;/font&gt;" style="text;html=1;strokeColor=none;fillColor=none;align=center;verticalAlign=middle;whiteSpace=wrap;rounded=0;" parent="WIyWlLk6GJQsqaUBKTNV-1" vertex="1">
                    <mxGeometry x="740" y="1160" width="40" height="20" as="geometry"/>
                </mxCell>
                <mxCell id="zx0148MqRfyi0DoLK2Pc-116" value="&lt;font style=&quot;font-size: 24px&quot;&gt;8&lt;/font&gt;" style="text;html=1;strokeColor=none;fillColor=none;align=center;verticalAlign=middle;whiteSpace=wrap;rounded=0;" parent="WIyWlLk6GJQsqaUBKTNV-1" vertex="1">
                    <mxGeometry x="740" y="1260" width="40" height="20" as="geometry"/>
                </mxCell>
                <mxCell id="zx0148MqRfyi0DoLK2Pc-117" value="&lt;font style=&quot;font-size: 24px&quot;&gt;9&lt;/font&gt;" style="text;html=1;strokeColor=none;fillColor=none;align=center;verticalAlign=middle;whiteSpace=wrap;rounded=0;" parent="WIyWlLk6GJQsqaUBKTNV-1" vertex="1">
                    <mxGeometry x="740" y="1360" width="40" height="20" as="geometry"/>
                </mxCell>
                <mxCell id="zx0148MqRfyi0DoLK2Pc-118" value="&lt;font style=&quot;font-size: 24px&quot;&gt;10&lt;/font&gt;" style="text;html=1;strokeColor=none;fillColor=none;align=center;verticalAlign=middle;whiteSpace=wrap;rounded=0;" parent="WIyWlLk6GJQsqaUBKTNV-1" vertex="1">
                    <mxGeometry x="740" y="1460" width="40" height="20" as="geometry"/>
                </mxCell>
                <mxCell id="zx0148MqRfyi0DoLK2Pc-119" value="&lt;font style=&quot;font-size: 24px&quot;&gt;11&lt;/font&gt;" style="text;html=1;strokeColor=none;fillColor=none;align=center;verticalAlign=middle;whiteSpace=wrap;rounded=0;" parent="WIyWlLk6GJQsqaUBKTNV-1" vertex="1">
                    <mxGeometry x="740" y="1560" width="40" height="20" as="geometry"/>
                </mxCell>
                <mxCell id="zx0148MqRfyi0DoLK2Pc-120" value="&lt;span style=&quot;font-size: 24px&quot;&gt;12&lt;/span&gt;" style="text;html=1;strokeColor=none;fillColor=none;align=center;verticalAlign=middle;whiteSpace=wrap;rounded=0;" parent="WIyWlLk6GJQsqaUBKTNV-1" vertex="1">
                    <mxGeometry x="740" y="1660" width="40" height="20" as="geometry"/>
                </mxCell>
                <mxCell id="zx0148MqRfyi0DoLK2Pc-121" value="&lt;font style=&quot;font-size: 24px&quot;&gt;13&lt;/font&gt;" style="text;html=1;strokeColor=none;fillColor=none;align=center;verticalAlign=middle;whiteSpace=wrap;rounded=0;" parent="WIyWlLk6GJQsqaUBKTNV-1" vertex="1">
                    <mxGeometry x="740" y="1760" width="40" height="20" as="geometry"/>
                </mxCell>
                <mxCell id="zx0148MqRfyi0DoLK2Pc-122" value="&lt;font style=&quot;font-size: 24px&quot;&gt;14&lt;/font&gt;" style="text;html=1;strokeColor=none;fillColor=none;align=center;verticalAlign=middle;whiteSpace=wrap;rounded=0;" parent="WIyWlLk6GJQsqaUBKTNV-1" vertex="1">
                    <mxGeometry x="740" y="1860" width="40" height="20" as="geometry"/>
                </mxCell>
                <mxCell id="zx0148MqRfyi0DoLK2Pc-123" value="&lt;br&gt;" style="text;html=1;strokeColor=none;fillColor=none;align=center;verticalAlign=middle;whiteSpace=wrap;rounded=0;" parent="WIyWlLk6GJQsqaUBKTNV-1" vertex="1">
                    <mxGeometry x="1180" y="1050" width="40" height="20" as="geometry"/>
                </mxCell>
                <mxCell id="zx0148MqRfyi0DoLK2Pc-124" value="&lt;br&gt;" style="text;html=1;strokeColor=none;fillColor=none;align=center;verticalAlign=middle;whiteSpace=wrap;rounded=0;" parent="WIyWlLk6GJQsqaUBKTNV-1" vertex="1">
                    <mxGeometry x="940" y="1930" width="40" height="20" as="geometry"/>
                </mxCell>
            </root>
        </mxGraphModel>
    </diagram>
</mxfile>